<svg xmlns="http://www.w3.org/2000/svg" fill="none" viewBox="0 0 63 52">
  <path fill="#fff" d="M59.5704 34.8236H63l-4.4849-4.6608c-6.4195-6.6833-15.3012-10.4646-24.6227-10.4646h-4.4848c-9.2336 0-18.1153 3.7813-24.62276 10.4646L.299988 34.8236H3.72958c9.23352 0 18.11532-3.7814 24.62272-10.4647l3.3417-3.4296C29.7593 32.713 12.9631 51.356 12.9631 51.356h37.6376S33.9804 32.9769 31.8698 21.1931l3.0779 3.2537c6.4195 6.5954 15.3012 10.3768 24.6227 10.3768Z"/>
  <path fill="#fff" d="m28.8799 12.839 2.7261-2.814 2.7261 2.814c5.2763 5.5401 12.6631 8.6179 20.3138 8.6179h2.814l-3.6934-3.8692c-5.2763-5.5402-12.6631-8.618-20.3138-8.618h-3.6934c-7.6506 0-14.9495 3.0778-20.31373 8.618l-3.6934 3.9572h2.81402c7.65061 0 15.03741-3.1658 20.31371-8.7059Z"/>
  <path fill="#fff" d="M29.4076 3.16578 31.606.879383l2.1985 2.286397c4.309 4.48485 10.2888 7.03502 16.5324 7.03502h2.2864l-2.9899-3.16574C45.3244 2.55021 39.3446 0 33.101 0h-2.9899c-6.2436 0-12.2234 2.55021-16.5324 7.03506l-2.9899 3.16574h2.2864c6.2436 0 12.2234-2.55017 16.5324-7.03502Z"/>
</svg>
