<svg width="35" height="39" viewBox="0 0 35 39" fill="none" xmlns="http://www.w3.org/2000/svg">
<path d="M0.7646 1.11964C0.32082 1.57321 0.0639954 2.27936 0.0639954 3.19386V35.8135C0.0639954 36.728 0.32082 37.4341 0.7646 37.8877L0.87413 37.9873L19.596 19.7157V19.2843L0.87413 1.01271L0.7646 1.11964Z" fill="url(#paint0_linear_102_2)"/>
<path d="M25.8296 25.8093L19.5959 19.7157V19.2843L25.8372 13.1907L25.9769 13.27L33.3682 17.376C35.4776 18.5412 35.4776 20.4587 33.3682 21.6314L25.9769 25.73L25.8296 25.8093V25.8093Z" fill="url(#paint1_linear_102_2)"/>
<path d="M25.977 25.73L19.596 19.5L0.764587 37.8877C1.46519 38.6068 2.60769 38.6934 3.90693 37.9744L25.977 25.73" fill="url(#paint2_linear_102_2)"/>
<path d="M25.977 13.27L3.90693 1.02565C2.60769 0.313958 1.46519 0.400612 0.764587 1.11967L19.596 19.5L25.977 13.27Z" fill="url(#paint3_linear_102_2)"/>
<defs>
<linearGradient id="paint0_linear_102_2" x1="17.9337" y1="36.1532" x2="-6.81324" y2="10.8066" gradientUnits="userSpaceOnUse">
<stop stop-color="#00A0FF"/>
<stop offset="0.0066" stop-color="#00A1FF"/>
<stop offset="0.2601" stop-color="#00BEFF"/>
<stop offset="0.5122" stop-color="#00D2FF"/>
<stop offset="0.7604" stop-color="#00DFFF"/>
<stop offset="1" stop-color="#00E3FF"/>
</linearGradient>
<linearGradient id="paint1_linear_102_2" x1="36.115" y1="19.4979" x2="-0.440251" y2="19.4979" gradientUnits="userSpaceOnUse">
<stop stop-color="#FFE000"/>
<stop offset="0.4087" stop-color="#FFBD00"/>
<stop offset="0.7754" stop-color="#FFA500"/>
<stop offset="1" stop-color="#FF9C00"/>
</linearGradient>
<linearGradient id="paint2_linear_102_2" x1="22.5072" y1="16.1133" x2="-11.0517" y2="-18.2588" gradientUnits="userSpaceOnUse">
<stop stop-color="#FF3A44"/>
<stop offset="1" stop-color="#C31162"/>
</linearGradient>
<linearGradient id="paint3_linear_102_2" x1="-3.97566" y1="48.7401" x2="11.0099" y2="33.3916" gradientUnits="userSpaceOnUse">
<stop stop-color="#32A071"/>
<stop offset="0.0685" stop-color="#2DA771"/>
<stop offset="0.4762" stop-color="#15CF74"/>
<stop offset="0.8009" stop-color="#06E775"/>
<stop offset="1" stop-color="#00F076"/>
</linearGradient>
</defs>
</svg>
