<svg xmlns="http://www.w3.org/2000/svg" fill="none" viewBox="0 0 52 21">
  <path fill="#2F70AF" d="M8.52 8.12c1.088-1.856 2.532-2.784 4.332-2.784.944 0 1.708.296 2.292.888.528.536.792 1.216.792 2.04V9.86c0 .104-.012.2-.036.288h.42V11h-.252l-.348-.42h-.036c-.224.28-.504.42-.84.42H8.532c-.024.904-.316 1.608-.876 2.112-.568.504-1.336.756-2.304.756H4.02c-.952 0-1.712-.244-2.28-.732-.608-.52-.912-1.268-.912-2.244V8.384l.516-.42h.504v2.904c0 .8.208 1.356.624 1.668.424.32 1.164.48 2.22.48.992 0 1.692-.136 2.1-.408.48-.328.72-.908.72-1.74L7.5 5.48h1.02v2.64Zm6.384.036c0-.68-.26-1.196-.78-1.548-.384-.264-.864-.396-1.44-.396-.736 0-1.416.24-2.04.72-.872.672-1.58 1.744-2.124 3.216h5.94c.296 0 .444-.152.444-.456V8.156Zm4.4813-.036c1.104-1.856 2.552-2.784 4.344-2.784.952 0 1.716.296 2.292.888.52.536.78 1.216.78 2.04V9.86c0 .104-.012.2-.036.288h.42V11h-.252l-.336-.42h-.036c-.224.28-.504.42-.84.42h-9.492v-.852h2.16l-.012-4.668h1.02l-.012 2.64Zm6.396.036c-.008-.64-.244-1.136-.708-1.488-.384-.304-.888-.456-1.512-.456s-1.208.172-1.752.516c-1.008.632-1.816 1.772-2.424 3.42h5.94c.304 0 .456-.152.456-.456V8.156Zm5.115-5.316c.168 0 .308.06.42.18.112.112.168.248.168.408 0 .168-.056.312-.168.432-.112.112-.252.168-.42.168-.16 0-.3-.056-.42-.168-.112-.12-.168-.264-.168-.432 0-.16.056-.296.168-.408.12-.12.26-.18.42-.18Zm-2.196 2.844c.736-.232 1.424-.348 2.064-.348.992 0 1.748.308 2.268.924.448.528.672 1.22.672 2.076V9.86c0 .096-.012.192-.036.288h.42V11h-.252l-.336-.42h-.036c-.224.28-.504.42-.84.42h-5.52v-.852h5.124c.304 0 .456-.152.456-.456V8.3c0-.624-.164-1.116-.492-1.476-.36-.4-.884-.6-1.572-.6-.416 0-1.056.088-1.92.264v-.804Zm6.5424-2.844c.168 0 .308.06.42.18.112.112.168.248.168.408 0 .168-.056.312-.168.432-.112.112-.252.168-.42.168-.16 0-.3-.056-.42-.168-.112-.12-.168-.264-.168-.432 0-.16.056-.296.168-.408.12-.12.26-.18.42-.18Zm1.464 0c.16 0 .296.06.408.18.12.112.18.248.18.408 0 .168-.06.312-.18.432-.112.112-.248.168-.408.168-.168 0-.312-.056-.432-.168-.112-.12-.168-.264-.168-.432 0-.16.056-.296.168-.408.12-.12.264-.18.432-.18Zm.48 2.64v4.38c0 .096-.012.192-.036.288h.636V11h-.468l-.348-.42h-.036c-.216.28-.496.42-.84.42h-2.088v-.852h1.704c.128 0 .232-.04.312-.12.096-.088.144-.2.144-.336V5.48h1.02Zm2.8754 4.668c-.328-.536-.492-1.148-.492-1.836 0-.968.272-1.716.816-2.244.488-.464 1.132-.704 1.932-.72.576 0 1.052.124 1.428.372.576.384.864.984.864 1.8v2.172c0 .112.028.208.084.288.072.104.168.16.288.168h.024V11h-.3c-.36 0-.648-.14-.864-.42-.432.52-.98.78-1.644.78-.696 0-1.3-.26-1.812-.78h-.024l-.336.42h-2.328v-.852h2.364Zm3.528-2.628c0-.416-.132-.748-.396-.996-.232-.216-.532-.324-.9-.324-.512 0-.924.192-1.236.576-.312.376-.468.872-.468 1.488 0 .648.164 1.188.492 1.62.312.416.704.624 1.176.624.464 0 .908-.212 1.332-.636V7.52Zm4.495-5.112V9.86c0 .312-.104.576-.312.792-.216.232-.476.348-.78.348h-2.088v-.852h1.704c.152 0 .268-.052.348-.156.072-.088.108-.188.108-.3V2.408h1.02Zm2.677 0v8.472l-.516.42h-.504V2.408h1.02Z"/>
  <path fill="#036" d="m9.403 15.913-.414-.936-.189.936L8.188 19h-.999l1.368-6.615h.108l1.818 3.573.54 1.197.54-1.197 1.782-3.573h.099L14.866 19h-.99l-.666-3.087-.198-.936-.36.936L11.05 19h-.054l-1.593-3.087Zm10.1118 3.177c-.6 0-1.155-.138-1.665-.414-.504-.282-.906-.681-1.206-1.197-.3-.516-.45-1.116-.45-1.8 0-.69.15-1.29.45-1.8.3-.516.702-.912 1.206-1.188.51-.276 1.065-.414 1.665-.414.6 0 1.152.138 1.656.414.51.276.915.672 1.215 1.188.3.51.45 1.11.45 1.8 0 .684-.15 1.284-.45 1.8-.3.516-.705.915-1.215 1.197-.504.276-1.056.414-1.656.414Zm0-.909c.414 0 .792-.096 1.134-.288.342-.198.612-.483.81-.855.204-.378.306-.828.306-1.35 0-.528-.102-.978-.306-1.35-.198-.378-.468-.663-.81-.855-.336-.192-.714-.288-1.134-.288-.42 0-.801.096-1.143.288-.342.192-.612.477-.81.855-.198.372-.297.822-.297 1.35 0 .522.102.972.306 1.35.204.372.477.657.819.855.348.192.723.288 1.125.288Zm6.0659-4.914h-1.692v-.882h4.401v.882h-1.71V19h-.999v-5.733Zm5.9295 2.772-.54.666V19h-.99v-6.615h.99v2.952l2.268-2.952h1.206l-2.277 2.907L34.7682 19h-1.233l-2.025-2.961Zm4.5335-3.654h1.008v2.7h2.331v-2.7h1.008V19h-1.008v-3.069h-2.331V19h-1.008v-6.615Zm7.9805 6.705c-.36 0-.717-.063-1.071-.189s-.609-.267-.765-.423l.477-.855c.126.114.321.234.585.36.27.12.528.18.774.18.318 0 .576-.075.774-.225.204-.15.306-.357.306-.621 0-.204-.054-.381-.162-.531-.108-.15-.24-.273-.396-.369-.156-.102-.378-.225-.666-.369-.342-.168-.576-.294-.702-.378-.582-.39-.873-.93-.873-1.62 0-.57.189-1.005.567-1.305.378-.306.855-.459 1.431-.459.618 0 1.143.177 1.575.531l-.477.819c-.114-.12-.276-.222-.486-.306-.204-.09-.423-.135-.657-.135-.3 0-.537.069-.711.207-.168.132-.252.33-.252.594 0 .186.054.354.162.504.108.144.243.27.405.378.168.108.393.24.675.396.27.15.477.27.621.36.144.084.279.186.405.306.174.156.315.342.423.558.108.216.162.453.162.711 0 .402-.093.744-.279 1.026-.18.282-.432.495-.756.639-.318.144-.681.216-1.089.216Zm5.4485 0c-.36 0-.717-.063-1.071-.189s-.609-.267-.765-.423l.477-.855c.126.114.321.234.585.36.27.12.528.18.774.18.318 0 .576-.075.774-.225.204-.15.306-.357.306-.621 0-.204-.054-.381-.162-.531-.108-.15-.24-.273-.396-.369-.156-.102-.378-.225-.666-.369-.342-.168-.576-.294-.702-.378-.582-.39-.873-.93-.873-1.62 0-.57.189-1.005.567-1.305.378-.306.855-.459 1.431-.459.618 0 1.143.177 1.575.531l-.477.819c-.114-.12-.276-.222-.486-.306-.204-.09-.423-.135-.657-.135-.3 0-.537.069-.711.207-.168.132-.252.33-.252.594 0 .186.054.354.162.504.108.144.243.27.405.378.168.108.393.24.675.396.27.15.477.27.621.36.144.084.279.186.405.306.174.156.315.342.423.558.108.216.162.453.162.711 0 .402-.093.744-.279 1.026-.18.282-.432.495-.756.639-.318.144-.681.216-1.089.216Z"/>
</svg>
